<?xml version="1.0" standalone="no"?>
<!DOCTYPE svg PUBLIC "-//W3C//DTD SVG 20010904//EN"
 "http://www.w3.org/TR/2001/REC-SVG-20010904/DTD/svg10.dtd">
<svg version="1.0" xmlns="http://www.w3.org/2000/svg"
 width="42.000000pt" height="43.000000pt" viewBox="0 0 42.000000 43.000000"
 preserveAspectRatio="xMidYMid meet">

<g transform="translate(0.000000,43.000000) scale(0.100000,-0.100000)"
fill="#000000" stroke="none">
<path d="M55 303 c14 -3 31 -27 53 -76 18 -40 32 -80 32 -90 0 -22 27 -34 43
-18 14 14 60 14 74 0 15 -15 43 -4 43 17 0 13 -8 15 -48 9 -50 -7 -108 8 -97
25 3 5 40 10 81 10 81 0 85 3 101 83 l6 27 -127 0 c-77 0 -126 4 -126 10 0 6
-12 9 -27 9 -20 -1 -22 -3 -8 -6z m261 -53 c-19 -65 -12 -60 -95 -60 -73 0
-78 1 -89 25 -10 21 -9 25 3 25 8 0 15 5 15 11 0 6 -9 8 -20 4 -11 -4 -20 -2
-20 4 0 7 37 11 106 11 101 0 105 -1 100 -20z"/>
<path d="M180 250 c0 -5 5 -10 10 -10 6 0 10 5 10 10 0 6 -4 10 -10 10 -5 0
-10 -4 -10 -10z"/>
<path d="M230 250 c0 -5 5 -10 10 -10 6 0 10 5 10 10 0 6 -4 10 -10 10 -5 0
-10 -4 -10 -10z"/>
<path d="M280 250 c0 -5 5 -10 10 -10 6 0 10 5 10 10 0 6 -4 10 -10 10 -5 0
-10 -4 -10 -10z"/>
<path d="M155 219 c-10 -15 3 -25 16 -12 7 7 7 13 1 17 -6 3 -14 1 -17 -5z"/>
<path d="M206 223 c-11 -11 -6 -23 9 -23 8 0 15 4 15 9 0 13 -16 22 -24 14z"/>
<path d="M256 222 c-3 -6 -1 -14 5 -17 15 -10 25 3 12 16 -7 7 -13 7 -17 1z"/>
</g>
</svg>
